# xmcd
#
# Track frame offsets: 
#        150
#        28548
#        36293
#        53855
#        74452
#        86742
#        125109
#        135532
#        149258
#        166582
#        191675
#        207505
#
# Disc length: 3298 seconds
#
# Revision: 1
# Processed by: cddbd v1.5.2PL0 Copyright (c) Steve Scherf et al.
# Submitted via: ExactAudioCopy v1.0b2
#
DISCID=b20ce00c
DTITLE=Quicksilver Messenger Service - Castles in the Sand
DYEAR=1969
DGENRE=Psych-Rock
TTITLE0=Senor Blues
TTITLE1=Subway
TTITLE2=I IKnow You Rider #1
TTITLE3=I Know You Rider #2
TTITLE4=Walk in Jerusalem
TTITLE5=Castles in the Sand
TTITLE6=May You Never Be Alone
TTITLE7=Warm Red Wine
TTITLE8=Look Over Yonder Wall - State Farm
TTITLE9=Wake Up, Dead Man [part 1]
TTITLE10=Wake Up, Dead Man [part 2]
TTITLE11=The Fool
EXTD=
EXTT0=
EXTT1=
EXTT2=
EXTT3=
EXTT4=
EXTT5=
EXTT6=
EXTT7=
EXTT8=
EXTT9=
EXTT10=
EXTT11=
PLAYORDER=
